<?xml version="1.0" encoding="UTF-8" standalone="no"?>
<!DOCTYPE svg PUBLIC "-//W3C//DTD SVG 1.1//EN" "http://www.w3.org/Graphics/SVG/1.1/DTD/svg11.dtd">
<svg width="100%" height="100%" viewBox="0 0 1080 1080" version="1.1" xmlns="http://www.w3.org/2000/svg" xmlns:xlink="http://www.w3.org/1999/xlink" xml:space="preserve" xmlns:serif="http://www.serif.com/" style="fill-rule:evenodd;clip-rule:evenodd;stroke-linecap:round;stroke-linejoin:round;stroke-miterlimit:1.5;">
    <g transform="matrix(1,0,0,1,2.38288e-10,-5.67289)">
        <g transform="matrix(1,0,0,1,6,52)">
            <path d="M433.164,357.673C433.164,357.673 467.467,289.065 496.059,231.882C503.244,217.511 517.933,208.433 534,208.433C550.067,208.433 564.755,217.511 571.941,231.882C621.724,331.448 788.04,664.079 835.305,758.61C841.88,771.76 841.177,787.376 833.448,799.882C825.719,812.388 812.066,820 797.364,820L270.636,820C255.934,820 242.281,812.388 234.552,799.882C226.823,787.376 226.12,771.76 232.695,758.61C261.98,700.039 301.664,620.673 301.664,620.673" style="fill:none;stroke:black;stroke-width:20px;"/>
        </g>
        <path d="M537.617,839L333.031,839C318.29,839 304.607,831.348 296.89,818.789C289.172,806.231 288.528,790.566 295.187,777.416L402.144,566.217" style="fill:none;stroke:black;stroke-width:20px;"/>
        <path d="M451.266,469.217L502.157,368.727C509.38,354.463 524.011,345.472 540,345.472C555.989,345.472 570.62,354.463 577.843,368.727L784.813,777.416C791.472,790.566 790.828,806.231 783.11,818.789C775.393,831.348 761.71,839 746.969,839L626,839" style="fill:none;stroke:black;stroke-width:20px;"/>
        <g transform="matrix(1.16566,0,0,1.16566,-82.4639,-49.3871)">
            <path d="M534,820L260.881,820C248.269,820 236.556,813.47 229.926,802.741C223.295,792.012 222.692,778.616 228.333,767.335C273.087,677.827 450.881,322.239 501.451,221.098C507.615,208.769 520.216,200.981 534,200.981C547.784,200.981 560.385,208.769 566.549,221.098C617.119,322.239 708.812,505.624 708.812,505.624" style="fill:none;stroke:black;stroke-width:17.16px;"/>
        </g>
        <g transform="matrix(1.16566,0,0,1.16566,-82.4639,-49.3871)">
            <path d="M771.437,630.875C771.437,630.875 811.687,711.374 839.667,767.335C845.308,778.616 844.705,792.012 838.074,802.741C831.444,813.47 819.731,820 807.119,820L610.351,820" style="fill:none;stroke:black;stroke-width:17.16px;"/>
        </g>
    </g>
</svg>
